# xmcd CD database file
#
# Track frame offsets:
#	150
#	30790
#	59663
#	88765
#	114993
#	140820
#	170959
#	200410
#	233208
#	256878
#	281594
#	313106
#
# Disc length: 4608 seconds
#
# Revision: 1
# Processed by: cddbd v1.5.2PL0 Copyright (c) Steve Scherf et al.
# Submitted via: CDex 1.70beta2
#
DISCID=af11fe0c
DTITLE=Herriot-J1972 - Great-Small07
DYEAR=1972
DGENRE=Jungle
TTITLE0=GS 0701
TTITLE1=GS 0702
TTITLE2=GS 0703
TTITLE3=GS 0704
TTITLE4=GS 0705
TTITLE5=GS 0706
TTITLE6=GS 0707
TTITLE7=GS 0708
TTITLE8=GS 0709
TTITLE9=GS 0710
TTITLE10=GS 0711
TTITLE11=GS 0712
EXTD=All Creatures Great and Small 12 CDs\nby James Harriot read by ChristopherTimothy\nAudio Renassance - Jungle - Country YEAR: 1972
EXTT0=
EXTT1=
EXTT2=
EXTT3=
EXTT4=
EXTT5=
EXTT6=
EXTT7=
EXTT8=
EXTT9=
EXTT10=
EXTT11=
PLAYORDER=
